<svg xmlns="http://www.w3.org/2000/svg" version="1.1" xmlns:xlink="http://www.w3.org/1999/xlink" xmlns:svgjs="http://svgjs.dev/svgjs" width="1500" height="1500" viewBox="0 0 1500 1500"><g transform="matrix(1,0,0,1,-0.323615160350073,-0.3236151603499593)"><svg viewBox="0 0 343 343" data-background-color="#000000" preserveAspectRatio="xMidYMid meet" height="1500" width="1500" xmlns="http://www.w3.org/2000/svg" xmlns:xlink="http://www.w3.org/1999/xlink"><g id="tight-bounds" transform="matrix(1,0,0,1,0.0740000000000407,0.07400000000001228)"><svg viewBox="0 0 342.85155851775386 342.85155851775386" height="342.85155851775386" width="342.85155851775386"><rect width="342.852" height="342.852" fill="url(#da6b5e73-e214-4b10-b3ac-4f76ca15cc78)" mask="url(#64da2deb-8fdc-4077-aa8f-5f4c9ca38400)" data-fill-palette-color="tertiary"></rect><g><svg></svg></g><g><svg viewBox="0 0 342.85155851775386 342.85155851775386" height="342.85155851775386" width="342.85155851775386"><g><path d="M0 171.426c0-94.676 76.75-171.426 171.426-171.426 94.676 0 171.426 76.75 171.426 171.426 0 94.676-76.75 171.426-171.426 171.426-94.676 0-171.426-76.75-171.426-171.426zM171.426 336.018c90.902 0 164.592-73.69 164.592-164.592 0-90.902-73.69-164.592-164.592-164.592-90.902 0-164.592 73.69-164.592 164.592 0 90.902 73.69 164.592 164.592 164.592z" data-fill-palette-color="tertiary" fill="url(#da6b5e73-e214-4b10-b3ac-4f76ca15cc78)" stroke="transparent"></path><ellipse rx="164.56874808852186" ry="164.56874808852186" cx="171.42577925887693" cy="171.42577925887693" fill="url(#da6b5e73-e214-4b10-b3ac-4f76ca15cc78)" stroke="transparent" stroke-width="0" fill-opacity="1" data-fill-palette-color="tertiary"></ellipse></g><g transform="matrix(1,0,0,1,64.84655864529837,133.53731689624811)"><svg viewBox="0 0 213.1584412271571 75.77692472525762" height="75.77692472525762" width="213.1584412271571"><g><svg viewBox="0 0 213.1584412271571 75.77692472525762" height="75.77692472525762" width="213.1584412271571"><g><svg viewBox="0 0 213.1584412271571 75.77692472525762" height="75.77692472525762" width="213.1584412271571"><g id="textblocktransform"><svg viewBox="0 0 213.1584412271571 75.77692472525762" height="75.77692472525762" width="213.1584412271571" id="textblock"><g><svg viewBox="0 0 213.1584412271571 75.77692472525762" height="75.77692472525762" width="213.1584412271571"><g transform="matrix(1,0,0,1,0,0)"><svg width="213.1584412271571" viewBox="1.22 -31.93 147.36349995944 52.39" height="75.77692472525762" data-palette-color="#000000"><path d="M21.88 4.64L19.09-0.05Q16.89 0.15 14.72 0.12 12.55 0.1 10.55-0.27 8.54-0.63 6.86-1.44 5.18-2.25 3.91-3.56 2.64-4.88 1.93-6.86 1.22-8.84 1.22-11.62L1.22-11.62Q1.22-13.33 1.64-15.48 2.05-17.63 2.86-19.9 3.66-22.17 4.83-24.34 6.01-26.51 7.54-28.2 9.08-29.88 10.91-30.91 12.74-31.93 14.89-31.93L14.89-31.93Q16.36-31.93 17.75-30.81 19.14-29.69 20.34-27.95 21.53-26.22 22.51-24.12 23.49-22.02 24.19-19.97 24.9-17.92 25.29-16.26 25.68-14.6 25.68-13.77L25.68-13.77Q25.68-11.96 25.42-10.4 25.15-8.84 24.56-7.4 23.97-5.96 23.07-4.61 22.17-3.27 20.95-1.9L20.95-1.9Q21.14-1.61 21.56-0.81 21.97 0 22.41 0.9 22.85 1.81 23.24 2.59 23.63 3.37 23.78 3.71L23.78 3.71Q23.83 3.81 23.88 4.17 23.93 4.54 23.93 4.64L23.93 4.64 21.88 4.64ZM3.13-11.62L3.13-11.62Q3.13-9.42 3.88-7.59 4.64-5.76 5.98-4.49 7.32-3.22 9.13-2.51 10.94-1.81 13.04-1.81L13.04-1.81Q13.38-1.81 14.06-1.81 14.75-1.81 15.45-1.9 16.16-2 16.72-2.32 17.29-2.64 17.29-3.27L17.29-3.27Q17.29-4.69 16.58-5.81 15.87-6.93 15.01-7.98 14.16-9.03 13.45-10.03 12.74-11.04 12.74-12.21L12.74-12.21 14.4-12.21 20.02-4.74Q21.04-5.47 21.75-6.52 22.46-7.57 22.92-8.76 23.39-9.96 23.58-11.23 23.78-12.5 23.78-13.67L23.78-13.67Q23.78-15.72 23.27-17.7 22.75-19.68 21.92-21.44 21.09-23.19 20.09-24.68 19.09-26.17 18.14-27.32 17.19-28.47 16.43-29.15 15.67-29.83 15.33-30.03L15.33-30.03Q12.35-29.3 10.08-27.42 7.81-25.54 6.25-23.02 4.69-20.51 3.91-17.53 3.13-14.55 3.13-11.62ZM27.19-18.95L27.19-18.95Q27.19-19.19 27.51-19.43 27.83-19.68 28.29-19.82 28.76-19.97 29.2-20.02 29.64-20.07 29.83-19.87L29.83-19.87Q30.12-13.82 30.98-10.23 31.83-6.64 32.93-4.98 34.03-3.32 35.3-3.3 36.57-3.27 37.79-4.37 39.01-5.47 40.06-7.37 41.11-9.28 41.77-11.47 42.43-13.67 42.58-15.87 42.72-18.07 42.19-19.78L42.19-19.78 45.11-20.12Q45.16-19.38 45.38-17.7 45.6-16.02 45.87-13.89 46.14-11.77 46.48-9.47 46.82-7.18 47.07-5.2 47.31-3.22 47.51-1.83 47.7-0.44 47.7-0.1L47.7-0.1 45.6-0.1 43.31-8.54Q42.62-6.84 41.65-5.27 40.67-3.71 39.52-2.54 38.38-1.37 37.11-0.71 35.84-0.05 34.59-0.17 33.35-0.29 32.18-1.32 31-2.34 30-4.57 29-6.79 28.27-10.3 27.54-13.82 27.19-18.95ZM49.8-8.94L49.8-8.94Q49.8-10.06 50-11.55 50.19-13.04 50.63-14.55 51.07-16.06 51.73-17.53 52.39-18.99 53.32-20.14 54.24-21.29 55.46-22 56.68-22.71 58.2-22.71L58.2-22.71Q59.76-22.71 61.1-21.63 62.45-20.56 63.4-18.85 64.35-17.14 64.84-15.04 65.33-12.94 65.23-10.94L65.23-10.94Q65.23-8.01 64.11-5.71 62.98-3.42 61.25-2 59.52-0.59 57.54-0.1 55.56 0.39 53.83-0.37 52.09-1.12 50.95-3.22 49.8-5.32 49.8-8.94ZM51.61-8.74L51.61-8.74Q51.75-5.76 52.63-4.15 53.51-2.54 54.76-2.03 56-1.51 57.47-2 58.93-2.49 60.2-3.74 61.47-4.98 62.37-6.86 63.28-8.74 63.37-11.08L63.37-11.08Q63.47-12.84 63.11-14.5 62.74-16.16 62.08-17.46 61.42-18.75 60.47-19.51 59.52-20.26 58.3-20.26L58.3-20.26Q57.12-20.26 56.2-19.68 55.27-19.09 54.51-18.09 53.75-17.09 53.22-15.82 52.68-14.55 52.31-13.28 51.95-12.01 51.78-10.82 51.61-9.62 51.61-8.74ZM73.67-17.72L73.67-17.72Q73.23-17.87 72.48-17.85 71.72-17.82 70.87-17.75 70.01-17.68 69.23-17.58 68.45-17.48 67.91-17.48L67.91-17.48Q67.67-17.48 67.6-18.19 67.52-18.9 67.38-20.12L67.38-20.12 74.26-20.61Q74.41-22.31 74.46-23.05 74.5-23.78 74.48-24.29 74.46-24.8 74.43-25.46 74.41-26.12 74.41-27.54L74.41-27.54Q75.68-27.73 76.34-27.66 76.99-27.59 77.24-27.29 77.48-27 77.46-26.44 77.43-25.88 77.31-25.05 77.19-24.22 77.12-23.05 77.04-21.88 77.19-20.41L77.19-20.41 83.05-20.61 83.05-18.21Q82.66-18.21 81.83-18.16 81-18.12 80.05-18.07 79.09-18.02 78.29-17.97 77.48-17.92 77.09-17.77L77.09-17.77Q76.7-16.02 76.26-14.01 75.82-12.01 75.68-10.06 75.53-8.11 75.77-6.42 76.02-4.74 76.99-3.64 77.97-2.54 79.78-2.12 81.58-1.71 84.56-2.39L84.56-2.39Q84.47-1.66 84-1.2 83.54-0.73 82.93-0.46 82.32-0.2 81.63-0.07 80.95 0.05 80.41 0.05L80.41 0.05Q77.92 0.05 76.46-0.85 74.99-1.76 74.26-3.22 73.53-4.69 73.33-6.57 73.14-8.45 73.21-10.4 73.28-12.35 73.48-14.26 73.67-16.16 73.67-17.72ZM86.46-8.94L86.46-8.94Q86.46-10.06 86.66-11.55 86.86-13.04 87.29-14.55 87.73-16.06 88.39-17.53 89.05-18.99 89.98-20.14 90.91-21.29 92.13-22 93.35-22.71 94.86-22.71L94.86-22.71Q96.43-22.71 97.77-21.63 99.11-20.56 100.06-18.85 101.02-17.14 101.5-15.04 101.99-12.94 101.89-10.94L101.89-10.94Q101.89-8.01 100.77-5.71 99.65-3.42 97.91-2 96.18-0.59 94.2-0.1 92.23 0.39 90.49-0.37 88.76-1.12 87.61-3.22 86.46-5.32 86.46-8.94ZM88.27-8.74L88.27-8.74Q88.42-5.76 89.3-4.15 90.18-2.54 91.42-2.03 92.67-1.51 94.13-2 95.6-2.49 96.87-3.74 98.13-4.98 99.04-6.86 99.94-8.74 100.04-11.08L100.04-11.08Q100.14-12.84 99.77-14.5 99.4-16.16 98.74-17.46 98.09-18.75 97.13-19.51 96.18-20.26 94.96-20.26L94.96-20.26Q93.79-20.26 92.86-19.68 91.93-19.09 91.18-18.09 90.42-17.09 89.88-15.82 89.35-14.55 88.98-13.28 88.61-12.01 88.44-10.82 88.27-9.62 88.27-8.74ZM105.99-12.65L105.99-12.65Q105.8-12.5 105.46-12.55 105.11-12.6 104.82-12.72 104.53-12.84 104.31-13.06 104.09-13.28 104.09-13.57L104.09-13.57Q104.09-15.23 105.11-16.63 106.14-18.02 107.65-19.02 109.17-20.02 110.88-20.58 112.59-21.14 114-21.14L114-21.14Q116.25-21.14 118.08-20.39 119.91-19.63 121.2-18.31 122.5-16.99 123.21-15.23 123.91-13.48 123.91-11.47L123.91-11.47Q123.96-8.94 122.77-6.84 121.57-4.74 119.64-3.25 117.71-1.76 115.34-1 112.98-0.24 110.68-0.44L110.68-0.44Q110.78 1.32 110.63 3.59 110.49 5.86 110.24 8.54 110 11.23 109.63 14.23 109.26 17.24 108.87 20.41L108.87 20.41Q108.87 20.46 108.58 20.46 108.29 20.46 107.97 20.39 107.65 20.31 107.34 20.24 107.02 20.17 106.97 20.21L106.97 20.21Q107.31 16.16 107.51 12.01 107.7 7.86 107.65 3.69 107.6-0.49 107.21-4.59 106.82-8.69 105.99-12.65ZM113.42-18.41L113.42-18.41Q112.49-18.36 111.41-18.14 110.34-17.92 109.51-17.48 108.68-17.04 108.19-16.31 107.7-15.58 107.85-14.5L107.85-14.5Q107.95-14.01 108.12-13.09 108.29-12.16 108.51-10.99 108.73-9.81 108.95-8.54 109.17-7.28 109.39-6.1 109.61-4.93 109.78-3.98 109.95-3.03 110.05-2.54L110.05-2.54Q110.63-2.64 111.71-2.73 112.78-2.83 114-3.13 115.22-3.42 116.52-3.93 117.81-4.44 118.93-5.37 120.06-6.3 120.91-7.69 121.76-9.08 122.06-11.13L122.06-11.13Q122.06-13.04 121.37-14.4 120.69-15.77 119.52-16.67 118.35-17.58 116.76-17.99 115.17-18.41 113.42-18.41ZM129.57 0.1L128.84-18.95Q129.43-18.95 129.84-18.99 130.26-19.04 130.55-18.51L130.55-18.51Q130.7-16.31 130.89-14.04 131.09-11.77 131.28-9.47 131.48-7.18 131.55-4.86 131.63-2.54 131.58-0.34L131.58-0.34Q131.58-0.05 131.43 0.02 131.28 0.1 131.02 0.07 130.75 0.05 130.38 0.02 130.01 0 129.57 0.1L129.57 0.1ZM126.01-27.69L126.01-27.69Q126.01-28.03 126.06-28.44 126.11-28.86 126.28-29.2 126.45-29.54 126.72-29.79 126.99-30.03 127.38-30.03L127.38-30.03Q127.96-30.03 128.55-29.98 129.14-29.93 129.67-29.76 130.21-29.59 130.55-29.22 130.89-28.86 130.89-28.17L130.89-28.17Q130.89-27 130.01-26.1 129.14-25.2 127.87-25.2L127.87-25.2Q126.89-25.2 126.45-25.95 126.01-26.71 126.01-27.69ZM128.84-27.44L128.84-27.44Q128.7-27.44 128.7-27.2 128.7-26.95 128.84-26.95L128.84-26.95Q129.04-26.95 129.04-27.2 129.04-27.44 128.84-27.44ZM133.58-4.2L133.58-4.2Q133.58-6.98 135.11-8.25 136.65-9.52 139.14-9.52L139.14-9.52Q140.12-9.52 140.97-9.47 141.83-9.42 142.61-9.23 143.39-9.03 144.15-8.64 144.9-8.25 145.73-7.52L145.73-7.52Q145.73-7.67 145.76-8.13 145.78-8.59 145.78-9.13 145.78-9.67 145.78-10.13 145.78-10.6 145.78-10.79L145.78-10.79Q145.73-11.67 145.73-13.06 145.73-14.45 145.51-15.92 145.3-17.38 144.64-18.7 143.98-20.02 142.51-20.7L142.51-20.7Q141.49-20.7 140.61-20.36 139.73-20.02 138.85-19.63 137.97-19.24 137.09-18.92 136.21-18.6 135.19-18.6L135.19-18.6Q135.19-19.82 135.94-20.63 136.7-21.44 137.78-21.88 138.85-22.31 140.02-22.46 141.19-22.61 142.07-22.61L142.07-22.61Q142.95-22.46 143.71-22.27 144.46-22.07 145.12-21.48 145.78-20.9 146.34-19.7 146.91-18.51 147.32-16.36 147.74-14.21 148.05-10.91 148.37-7.62 148.57-2.83L148.57-2.83Q148.66-2.2 148.15-1.73 147.64-1.27 146.76-0.95 145.88-0.63 144.78-0.42 143.68-0.2 142.56-0.1 141.44 0 140.41 0.05 139.39 0.1 138.7 0.1L138.7 0.1Q137.82 0.1 136.92-0.2 136.02-0.49 135.26-1.05 134.5-1.61 134.04-2.42 133.58-3.22 133.58-4.2ZM139.92-7.62L139.92-7.62Q137.48-6.93 136.51-5.98 135.53-5.03 135.65-4.15 135.77-3.27 136.8-2.56 137.82-1.86 139.29-1.64 140.75-1.42 142.46-1.88 144.17-2.34 145.73-3.71L145.73-3.71Q145.15-5.13 144.56-5.88 143.98-6.64 143.29-7.03 142.61-7.42 141.78-7.52 140.95-7.62 139.92-7.62Z" opacity="1" transform="matrix(1,0,0,1,0,0)" fill="#000000" class="wordmark-text-0" data-fill-palette-color="quaternary" id="text-0"></path></svg></g></svg></g></svg></g></svg></g><g></g></svg></g></svg></g></svg></g><defs></defs><mask id="64da2deb-8fdc-4077-aa8f-5f4c9ca38400"><g id="SvgjsG5214"><svg viewBox="0 0 342.85155851775386 342.85155851775386" height="342.85155851775386" width="342.85155851775386"><g><svg></svg></g><g><svg viewBox="0 0 342.85155851775386 342.85155851775386" height="342.85155851775386" width="342.85155851775386"><g><path d="M0 171.426c0-94.676 76.75-171.426 171.426-171.426 94.676 0 171.426 76.75 171.426 171.426 0 94.676-76.75 171.426-171.426 171.426-94.676 0-171.426-76.75-171.426-171.426zM171.426 336.018c90.902 0 164.592-73.69 164.592-164.592 0-90.902-73.69-164.592-164.592-164.592-90.902 0-164.592 73.69-164.592 164.592 0 90.902 73.69 164.592 164.592 164.592z" fill="white" stroke="transparent"></path><ellipse rx="164.56874808852186" ry="164.56874808852186" cx="171.42577925887693" cy="171.42577925887693" fill="white" stroke="transparent" stroke-width="0" fill-opacity="1"></ellipse></g><g transform="matrix(1,0,0,1,64.84655864529837,133.53731689624811)"><svg viewBox="0 0 213.1584412271571 75.77692472525762" height="75.77692472525762" width="213.1584412271571"><g><svg viewBox="0 0 213.1584412271571 75.77692472525762" height="75.77692472525762" width="213.1584412271571"><g><svg viewBox="0 0 213.1584412271571 75.77692472525762" height="75.77692472525762" width="213.1584412271571"><g id="SvgjsG5213"><svg viewBox="0 0 213.1584412271571 75.77692472525762" height="75.77692472525762" width="213.1584412271571" id="SvgjsSvg5212"><g><svg viewBox="0 0 213.1584412271571 75.77692472525762" height="75.77692472525762" width="213.1584412271571"><g transform="matrix(1,0,0,1,0,0)"><svg width="213.1584412271571" viewBox="1.22 -31.93 147.36349995944 52.39" height="75.77692472525762" data-palette-color="#000000"><path d="M21.88 4.64L19.09-0.05Q16.89 0.15 14.72 0.12 12.55 0.1 10.55-0.27 8.54-0.63 6.86-1.44 5.18-2.25 3.91-3.56 2.64-4.88 1.93-6.86 1.22-8.84 1.22-11.62L1.22-11.62Q1.22-13.33 1.64-15.48 2.05-17.63 2.86-19.9 3.66-22.17 4.83-24.34 6.01-26.51 7.54-28.2 9.08-29.88 10.91-30.91 12.74-31.93 14.89-31.93L14.89-31.93Q16.36-31.93 17.75-30.81 19.14-29.69 20.34-27.95 21.53-26.22 22.51-24.12 23.49-22.02 24.19-19.97 24.9-17.92 25.29-16.26 25.68-14.6 25.68-13.77L25.68-13.77Q25.68-11.96 25.42-10.4 25.15-8.84 24.56-7.4 23.97-5.96 23.07-4.61 22.17-3.27 20.95-1.9L20.95-1.9Q21.14-1.61 21.56-0.81 21.97 0 22.41 0.9 22.85 1.81 23.24 2.59 23.63 3.37 23.78 3.71L23.78 3.71Q23.83 3.81 23.88 4.17 23.93 4.54 23.93 4.64L23.93 4.64 21.88 4.64ZM3.13-11.62L3.13-11.62Q3.13-9.42 3.88-7.59 4.64-5.76 5.98-4.49 7.32-3.22 9.13-2.51 10.94-1.81 13.04-1.81L13.04-1.81Q13.38-1.81 14.06-1.81 14.75-1.81 15.45-1.9 16.16-2 16.72-2.32 17.29-2.64 17.29-3.27L17.29-3.27Q17.29-4.69 16.58-5.81 15.87-6.93 15.01-7.98 14.16-9.03 13.45-10.03 12.74-11.04 12.74-12.21L12.74-12.21 14.4-12.21 20.02-4.74Q21.04-5.47 21.75-6.52 22.46-7.57 22.92-8.76 23.39-9.96 23.58-11.23 23.78-12.5 23.78-13.67L23.78-13.67Q23.78-15.72 23.27-17.7 22.75-19.68 21.92-21.44 21.09-23.19 20.09-24.68 19.09-26.17 18.14-27.32 17.19-28.47 16.43-29.15 15.67-29.83 15.33-30.03L15.33-30.03Q12.35-29.3 10.08-27.42 7.81-25.54 6.25-23.02 4.69-20.51 3.91-17.53 3.13-14.55 3.13-11.62ZM27.19-18.95L27.19-18.95Q27.19-19.19 27.51-19.43 27.83-19.68 28.29-19.82 28.76-19.97 29.2-20.02 29.64-20.07 29.83-19.87L29.83-19.87Q30.12-13.82 30.98-10.23 31.83-6.64 32.93-4.98 34.03-3.32 35.3-3.3 36.57-3.27 37.79-4.37 39.01-5.47 40.06-7.37 41.11-9.28 41.77-11.47 42.43-13.67 42.58-15.87 42.72-18.07 42.19-19.78L42.19-19.78 45.11-20.12Q45.16-19.38 45.38-17.7 45.6-16.02 45.87-13.89 46.14-11.77 46.48-9.47 46.82-7.18 47.07-5.2 47.31-3.22 47.51-1.83 47.7-0.44 47.7-0.1L47.7-0.1 45.6-0.1 43.31-8.54Q42.62-6.84 41.65-5.27 40.67-3.71 39.52-2.54 38.38-1.37 37.11-0.71 35.84-0.05 34.59-0.17 33.35-0.29 32.18-1.32 31-2.34 30-4.57 29-6.79 28.27-10.3 27.54-13.82 27.19-18.95ZM49.8-8.94L49.8-8.94Q49.8-10.06 50-11.55 50.19-13.04 50.63-14.55 51.07-16.06 51.73-17.53 52.39-18.99 53.32-20.14 54.24-21.29 55.46-22 56.68-22.71 58.2-22.71L58.2-22.71Q59.76-22.71 61.1-21.63 62.45-20.56 63.4-18.85 64.35-17.14 64.84-15.04 65.33-12.94 65.23-10.94L65.23-10.94Q65.23-8.01 64.11-5.71 62.98-3.42 61.25-2 59.52-0.59 57.54-0.1 55.56 0.39 53.83-0.37 52.09-1.12 50.95-3.22 49.8-5.32 49.8-8.94ZM51.61-8.74L51.61-8.74Q51.75-5.76 52.63-4.15 53.51-2.54 54.76-2.03 56-1.51 57.47-2 58.93-2.49 60.2-3.74 61.47-4.98 62.37-6.86 63.28-8.74 63.37-11.08L63.37-11.08Q63.47-12.84 63.11-14.5 62.74-16.16 62.08-17.46 61.42-18.75 60.47-19.51 59.52-20.26 58.3-20.26L58.3-20.26Q57.12-20.26 56.2-19.68 55.27-19.09 54.51-18.09 53.75-17.09 53.22-15.82 52.68-14.55 52.31-13.28 51.95-12.01 51.78-10.82 51.61-9.62 51.61-8.74ZM73.67-17.72L73.67-17.72Q73.23-17.87 72.48-17.85 71.72-17.82 70.87-17.75 70.01-17.68 69.23-17.58 68.45-17.48 67.91-17.48L67.91-17.48Q67.67-17.48 67.6-18.19 67.52-18.9 67.38-20.12L67.38-20.12 74.26-20.61Q74.41-22.31 74.46-23.05 74.5-23.78 74.48-24.29 74.46-24.8 74.43-25.46 74.41-26.12 74.41-27.54L74.41-27.54Q75.68-27.73 76.34-27.66 76.99-27.59 77.24-27.29 77.48-27 77.46-26.44 77.43-25.88 77.31-25.05 77.19-24.22 77.12-23.05 77.04-21.88 77.19-20.41L77.19-20.41 83.05-20.61 83.05-18.21Q82.66-18.21 81.83-18.16 81-18.12 80.05-18.07 79.09-18.02 78.29-17.97 77.48-17.92 77.09-17.77L77.09-17.77Q76.7-16.02 76.26-14.01 75.82-12.01 75.68-10.06 75.53-8.11 75.77-6.42 76.02-4.74 76.99-3.64 77.97-2.54 79.78-2.12 81.58-1.71 84.56-2.39L84.56-2.39Q84.47-1.66 84-1.2 83.54-0.73 82.93-0.46 82.32-0.2 81.63-0.07 80.95 0.05 80.41 0.05L80.41 0.05Q77.92 0.05 76.46-0.85 74.99-1.76 74.26-3.22 73.53-4.69 73.33-6.57 73.14-8.45 73.21-10.4 73.28-12.35 73.48-14.26 73.67-16.16 73.67-17.72ZM86.46-8.94L86.46-8.94Q86.46-10.06 86.66-11.55 86.86-13.04 87.29-14.55 87.73-16.06 88.39-17.53 89.05-18.99 89.98-20.14 90.91-21.29 92.13-22 93.35-22.71 94.86-22.71L94.86-22.71Q96.43-22.71 97.77-21.63 99.11-20.56 100.06-18.85 101.02-17.14 101.5-15.04 101.99-12.94 101.89-10.94L101.89-10.94Q101.89-8.01 100.77-5.71 99.65-3.42 97.91-2 96.18-0.59 94.2-0.1 92.23 0.39 90.49-0.37 88.76-1.12 87.61-3.22 86.46-5.32 86.46-8.94ZM88.27-8.74L88.27-8.74Q88.42-5.76 89.3-4.15 90.18-2.54 91.42-2.03 92.67-1.51 94.13-2 95.6-2.49 96.87-3.74 98.13-4.98 99.04-6.86 99.94-8.74 100.04-11.08L100.04-11.08Q100.14-12.84 99.77-14.5 99.4-16.16 98.74-17.46 98.09-18.75 97.13-19.51 96.18-20.26 94.96-20.26L94.96-20.26Q93.79-20.26 92.86-19.68 91.93-19.09 91.18-18.09 90.42-17.09 89.88-15.82 89.35-14.55 88.98-13.28 88.61-12.01 88.44-10.82 88.27-9.62 88.27-8.74ZM105.99-12.65L105.99-12.65Q105.8-12.5 105.46-12.55 105.11-12.6 104.82-12.72 104.53-12.84 104.31-13.06 104.09-13.28 104.09-13.57L104.09-13.57Q104.09-15.23 105.11-16.63 106.14-18.02 107.65-19.02 109.17-20.02 110.88-20.58 112.59-21.14 114-21.14L114-21.14Q116.25-21.14 118.08-20.39 119.91-19.63 121.2-18.31 122.5-16.99 123.21-15.23 123.91-13.48 123.91-11.47L123.91-11.47Q123.96-8.94 122.77-6.84 121.57-4.74 119.64-3.25 117.71-1.76 115.34-1 112.98-0.24 110.68-0.44L110.68-0.44Q110.78 1.32 110.63 3.59 110.49 5.86 110.24 8.54 110 11.23 109.63 14.23 109.26 17.24 108.87 20.41L108.87 20.41Q108.87 20.46 108.58 20.46 108.29 20.46 107.97 20.39 107.65 20.31 107.34 20.24 107.02 20.17 106.97 20.21L106.97 20.21Q107.31 16.16 107.51 12.01 107.7 7.86 107.65 3.69 107.6-0.49 107.21-4.59 106.82-8.69 105.99-12.65ZM113.42-18.41L113.42-18.41Q112.49-18.36 111.41-18.14 110.34-17.92 109.51-17.48 108.68-17.04 108.19-16.31 107.7-15.58 107.85-14.5L107.85-14.5Q107.95-14.01 108.12-13.09 108.29-12.16 108.51-10.99 108.73-9.81 108.95-8.54 109.17-7.28 109.39-6.1 109.61-4.93 109.78-3.98 109.95-3.03 110.05-2.54L110.05-2.54Q110.63-2.64 111.71-2.73 112.78-2.83 114-3.13 115.22-3.42 116.52-3.93 117.81-4.44 118.93-5.37 120.06-6.3 120.91-7.69 121.76-9.08 122.06-11.13L122.06-11.13Q122.06-13.04 121.37-14.4 120.69-15.77 119.52-16.67 118.35-17.58 116.76-17.99 115.17-18.41 113.42-18.41ZM129.57 0.1L128.84-18.95Q129.43-18.95 129.84-18.99 130.26-19.04 130.55-18.51L130.55-18.51Q130.7-16.31 130.89-14.04 131.09-11.77 131.28-9.47 131.48-7.18 131.55-4.86 131.63-2.54 131.58-0.34L131.58-0.34Q131.58-0.05 131.43 0.02 131.28 0.1 131.02 0.07 130.75 0.05 130.38 0.02 130.01 0 129.57 0.1L129.57 0.1ZM126.01-27.69L126.01-27.69Q126.01-28.03 126.06-28.44 126.11-28.86 126.28-29.2 126.45-29.54 126.72-29.79 126.99-30.03 127.38-30.03L127.38-30.03Q127.96-30.03 128.55-29.98 129.14-29.93 129.67-29.76 130.21-29.59 130.55-29.22 130.89-28.86 130.89-28.17L130.89-28.17Q130.89-27 130.01-26.1 129.14-25.2 127.87-25.2L127.87-25.2Q126.89-25.2 126.45-25.95 126.01-26.71 126.01-27.69ZM128.84-27.44L128.84-27.44Q128.7-27.44 128.7-27.2 128.7-26.95 128.84-26.95L128.84-26.95Q129.04-26.95 129.04-27.2 129.04-27.44 128.84-27.44ZM133.58-4.2L133.58-4.2Q133.58-6.98 135.11-8.25 136.65-9.52 139.14-9.52L139.14-9.52Q140.12-9.52 140.97-9.47 141.83-9.42 142.61-9.23 143.39-9.03 144.15-8.64 144.9-8.25 145.73-7.52L145.73-7.52Q145.73-7.67 145.76-8.13 145.78-8.59 145.78-9.13 145.78-9.67 145.78-10.13 145.78-10.6 145.78-10.79L145.78-10.79Q145.73-11.67 145.73-13.06 145.73-14.45 145.51-15.92 145.3-17.38 144.64-18.7 143.98-20.02 142.51-20.7L142.51-20.7Q141.49-20.7 140.61-20.36 139.73-20.02 138.85-19.63 137.97-19.24 137.09-18.92 136.21-18.6 135.19-18.6L135.19-18.6Q135.19-19.82 135.94-20.63 136.7-21.44 137.78-21.88 138.85-22.31 140.02-22.46 141.19-22.61 142.07-22.61L142.07-22.61Q142.95-22.46 143.71-22.27 144.46-22.07 145.12-21.48 145.78-20.9 146.34-19.7 146.91-18.51 147.32-16.36 147.74-14.21 148.05-10.91 148.37-7.62 148.57-2.83L148.57-2.83Q148.66-2.2 148.15-1.73 147.64-1.27 146.76-0.95 145.88-0.63 144.78-0.42 143.68-0.2 142.56-0.1 141.44 0 140.41 0.05 139.39 0.1 138.7 0.1L138.7 0.1Q137.82 0.1 136.92-0.2 136.02-0.49 135.26-1.05 134.5-1.61 134.04-2.42 133.58-3.22 133.58-4.2ZM139.92-7.62L139.92-7.62Q137.48-6.93 136.51-5.98 135.53-5.03 135.65-4.15 135.77-3.27 136.8-2.56 137.82-1.86 139.29-1.64 140.75-1.42 142.46-1.88 144.17-2.34 145.73-3.71L145.73-3.71Q145.15-5.13 144.56-5.88 143.98-6.64 143.29-7.03 142.61-7.42 141.78-7.52 140.95-7.62 139.92-7.62Z" opacity="1" transform="matrix(1,0,0,1,0,0)" fill="black" class="wordmark-text-0" id="SvgjsPath5211"></path></svg></g></svg></g></svg></g></svg></g><g></g></svg></g></svg></g></svg></g><defs><mask></mask></defs></svg><rect width="342.85155851775386" height="342.85155851775386" fill="black" stroke="none" visibility="hidden"></rect></g></mask><linearGradient x1="0" x2="1" y1="0.5" y2="0.5" id="da6b5e73-e214-4b10-b3ac-4f76ca15cc78"><stop stop-color="#ffa62e" offset="0"></stop><stop stop-color="#f71b3d" offset="1"></stop></linearGradient></svg><rect width="342.85155851775386" height="342.85155851775386" fill="none" stroke="none" visibility="hidden"></rect></g></svg></g></svg>