<svg xmlns="http://www.w3.org/2000/svg" version="1.1" xmlns:xlink="http://www.w3.org/1999/xlink" xmlns:svgjs="http://svgjs.dev/svgjs" width="128" height="128" viewBox="0 0 128 128"><g transform="matrix(0.8046875,0,0,0.8046875,12.612792253521128,12.612792253521128)"><svg viewBox="0 0 142 142" data-background-color="#000000" preserveAspectRatio="xMidYMid meet" height="128" width="128" xmlns="http://www.w3.org/2000/svg" xmlns:xlink="http://www.w3.org/1999/xlink"><g id="tight-bounds" transform="matrix(1,0,0,1,-0.15550000000000352,-0.15550000000000352)"><svg viewBox="0 0 142.31066447748242 142.31066447748242" height="142.31066447748242" width="142.31066447748242"><rect width="142.311" height="142.311" fill="url(#d2f75274-433a-4dcd-bbdc-08b6341b0893)" mask="url(#51396b69-2a34-490b-8a8a-993b754be3a0)" data-fill-palette-color="tertiary"></rect><g><svg></svg></g><g><svg viewBox="0 0 142.31066447748242 142.31066447748242" height="142.31066447748242" width="142.31066447748242"><g><path d="M0 71.155c0-39.298 31.857-71.155 71.155-71.155 39.298 0 71.155 31.857 71.156 71.155 0 39.298-31.857 71.155-71.156 71.156-39.298 0-71.155-31.857-71.155-71.156zM71.155 134.886c35.197 0 63.731-28.533 63.731-63.731 0-35.197-28.533-63.731-63.731-63.73-35.197 0-63.731 28.533-63.73 63.73 0 35.197 28.533 63.731 63.73 63.731z" data-fill-palette-color="tertiary" fill="url(#d2f75274-433a-4dcd-bbdc-08b6341b0893)" stroke="transparent"></path><ellipse rx="68.30911894919156" ry="68.30911894919156" cx="71.15533223874121" cy="71.15533223874121" fill="url(#d2f75274-433a-4dcd-bbdc-08b6341b0893)" stroke="transparent" stroke-width="0" fill-opacity="1" data-fill-palette-color="tertiary"></ellipse></g><g transform="matrix(1,0,0,1,43.619580296205356,29.989108276746492)"><svg viewBox="0 0 55.07150388507171 82.33244792398943" height="82.33244792398943" width="55.07150388507171"><g><svg viewBox="0 0 55.07150388507171 82.33244792398943" height="82.33244792398943" width="55.07150388507171"><g><svg viewBox="0 0 55.07150388507171 82.33244792398943" height="82.33244792398943" width="55.07150388507171"><g id="textblocktransform"><svg viewBox="0 0 55.07150388507171 82.33244792398943" height="82.33244792398943" width="55.07150388507171" id="textblock"><g><svg viewBox="0 0 55.07150388507171 82.33244792398943" height="82.33244792398943" width="55.07150388507171"><g transform="matrix(1,0,0,1,0,0)"><svg width="55.07150388507171" viewBox="1.22 -31.93 24.46 36.57" height="82.33244792398943" data-palette-color="#000000"><path d="M21.88 4.64L19.09-0.05Q16.89 0.15 14.72 0.12 12.55 0.1 10.55-0.27 8.54-0.63 6.86-1.44 5.18-2.25 3.91-3.56 2.64-4.88 1.93-6.86 1.22-8.84 1.22-11.62L1.22-11.62Q1.22-13.33 1.64-15.48 2.05-17.63 2.86-19.9 3.66-22.17 4.83-24.34 6.01-26.51 7.54-28.2 9.08-29.88 10.91-30.91 12.74-31.93 14.89-31.93L14.89-31.93Q16.36-31.93 17.75-30.81 19.14-29.69 20.34-27.95 21.53-26.22 22.51-24.12 23.49-22.02 24.19-19.97 24.9-17.92 25.29-16.26 25.68-14.6 25.68-13.77L25.68-13.77Q25.68-11.96 25.42-10.4 25.15-8.84 24.56-7.4 23.97-5.96 23.07-4.61 22.17-3.27 20.95-1.9L20.95-1.9Q21.14-1.61 21.56-0.81 21.97 0 22.41 0.9 22.85 1.81 23.24 2.59 23.63 3.37 23.78 3.71L23.78 3.71Q23.83 3.81 23.88 4.17 23.93 4.54 23.93 4.64L23.93 4.64 21.88 4.64ZM3.13-11.62L3.13-11.62Q3.13-9.42 3.88-7.59 4.64-5.76 5.98-4.49 7.32-3.22 9.13-2.51 10.94-1.81 13.04-1.81L13.04-1.81Q13.38-1.81 14.06-1.81 14.75-1.81 15.45-1.9 16.16-2 16.72-2.32 17.29-2.64 17.29-3.27L17.29-3.27Q17.29-4.69 16.58-5.81 15.87-6.93 15.01-7.98 14.16-9.03 13.45-10.03 12.74-11.04 12.74-12.21L12.74-12.21 14.4-12.21 20.02-4.74Q21.04-5.47 21.75-6.52 22.46-7.57 22.92-8.76 23.39-9.96 23.58-11.23 23.78-12.5 23.78-13.67L23.78-13.67Q23.78-15.72 23.27-17.7 22.75-19.68 21.92-21.44 21.09-23.19 20.09-24.68 19.09-26.17 18.14-27.32 17.19-28.47 16.43-29.15 15.67-29.83 15.33-30.03L15.33-30.03Q12.35-29.3 10.08-27.42 7.81-25.54 6.25-23.02 4.69-20.51 3.91-17.53 3.13-14.55 3.13-11.62Z" opacity="1" transform="matrix(1,0,0,1,0,0)" fill="#000000" class="wordmark-text-0" data-fill-palette-color="quaternary" id="text-0"></path></svg></g></svg></g></svg></g></svg></g><g></g></svg></g></svg></g></svg></g><defs></defs><mask id="51396b69-2a34-490b-8a8a-993b754be3a0"><g id="SvgjsG2109"><svg viewBox="0 0 142.31066447748242 142.31066447748242" height="142.31066447748242" width="142.31066447748242"><g><svg></svg></g><g><svg viewBox="0 0 142.31066447748242 142.31066447748242" height="142.31066447748242" width="142.31066447748242"><g><path d="M0 71.155c0-39.298 31.857-71.155 71.155-71.155 39.298 0 71.155 31.857 71.156 71.155 0 39.298-31.857 71.155-71.156 71.156-39.298 0-71.155-31.857-71.155-71.156zM71.155 134.886c35.197 0 63.731-28.533 63.731-63.731 0-35.197-28.533-63.731-63.731-63.73-35.197 0-63.731 28.533-63.73 63.73 0 35.197 28.533 63.731 63.73 63.731z" fill="white" stroke="transparent"></path><ellipse rx="68.30911894919156" ry="68.30911894919156" cx="71.15533223874121" cy="71.15533223874121" fill="white" stroke="transparent" stroke-width="0" fill-opacity="1"></ellipse></g><g transform="matrix(1,0,0,1,43.619580296205356,29.989108276746492)"><svg viewBox="0 0 55.07150388507171 82.33244792398943" height="82.33244792398943" width="55.07150388507171"><g><svg viewBox="0 0 55.07150388507171 82.33244792398943" height="82.33244792398943" width="55.07150388507171"><g><svg viewBox="0 0 55.07150388507171 82.33244792398943" height="82.33244792398943" width="55.07150388507171"><g id="SvgjsG2108"><svg viewBox="0 0 55.07150388507171 82.33244792398943" height="82.33244792398943" width="55.07150388507171" id="SvgjsSvg2107"><g><svg viewBox="0 0 55.07150388507171 82.33244792398943" height="82.33244792398943" width="55.07150388507171"><g transform="matrix(1,0,0,1,0,0)"><svg width="55.07150388507171" viewBox="1.22 -31.93 24.46 36.57" height="82.33244792398943" data-palette-color="#000000"><path d="M21.88 4.64L19.09-0.05Q16.89 0.15 14.72 0.12 12.55 0.1 10.55-0.27 8.54-0.63 6.86-1.44 5.18-2.25 3.91-3.56 2.64-4.88 1.93-6.86 1.22-8.84 1.22-11.62L1.22-11.62Q1.22-13.33 1.64-15.48 2.05-17.63 2.86-19.9 3.66-22.17 4.83-24.34 6.01-26.51 7.54-28.2 9.08-29.88 10.91-30.91 12.74-31.93 14.89-31.93L14.89-31.93Q16.36-31.93 17.75-30.81 19.14-29.69 20.34-27.95 21.53-26.22 22.51-24.12 23.49-22.02 24.19-19.97 24.9-17.92 25.29-16.26 25.68-14.6 25.68-13.77L25.68-13.77Q25.68-11.96 25.42-10.4 25.15-8.84 24.56-7.4 23.97-5.96 23.07-4.61 22.17-3.27 20.95-1.9L20.95-1.9Q21.14-1.61 21.56-0.81 21.97 0 22.41 0.9 22.85 1.81 23.24 2.59 23.63 3.37 23.78 3.71L23.78 3.71Q23.83 3.81 23.88 4.17 23.93 4.54 23.93 4.64L23.93 4.64 21.88 4.64ZM3.13-11.62L3.13-11.62Q3.13-9.42 3.88-7.59 4.64-5.76 5.98-4.49 7.32-3.22 9.13-2.51 10.94-1.81 13.04-1.81L13.04-1.81Q13.38-1.81 14.06-1.81 14.75-1.81 15.45-1.9 16.16-2 16.72-2.32 17.29-2.64 17.29-3.27L17.29-3.27Q17.29-4.69 16.58-5.81 15.87-6.93 15.01-7.98 14.16-9.03 13.45-10.03 12.74-11.04 12.74-12.21L12.74-12.21 14.4-12.21 20.02-4.74Q21.04-5.47 21.75-6.52 22.46-7.57 22.92-8.76 23.39-9.96 23.58-11.23 23.78-12.5 23.78-13.67L23.78-13.67Q23.78-15.72 23.27-17.7 22.75-19.68 21.92-21.44 21.09-23.19 20.09-24.68 19.09-26.17 18.14-27.32 17.19-28.47 16.43-29.15 15.67-29.83 15.33-30.03L15.33-30.03Q12.35-29.3 10.08-27.42 7.81-25.54 6.25-23.02 4.69-20.51 3.91-17.53 3.13-14.55 3.13-11.62Z" opacity="1" transform="matrix(1,0,0,1,0,0)" fill="black" class="wordmark-text-0" id="SvgjsPath2106"></path></svg></g></svg></g></svg></g></svg></g><g></g></svg></g></svg></g></svg></g><defs><mask></mask></defs></svg><rect width="142.31066447748242" height="142.31066447748242" fill="black" stroke="none" visibility="hidden"></rect></g></mask><linearGradient x1="0" x2="1" y1="0.5" y2="0.5" id="d2f75274-433a-4dcd-bbdc-08b6341b0893"><stop stop-color="#ffa62e" offset="0"></stop><stop stop-color="#f71b3d" offset="1"></stop></linearGradient></svg><rect width="142.31066447748242" height="142.31066447748242" fill="none" stroke="none" visibility="hidden"></rect></g></svg></g></svg>